<?xml version="1.0" encoding="utf-8"?>
<!-- Generator: Adobe Illustrator 20.1.0, SVG Export Plug-In . SVG Version: 6.00 Build 0)  -->
<svg version="1.1" xmlns="http://www.w3.org/2000/svg" xmlns:xlink="http://www.w3.org/1999/xlink" x="0px" y="0px"
	 viewBox="0 0 56.7 56.7" style="enable-background:new 0 0 56.7 56.7;" xml:space="preserve">
<style type="text/css">
	.st0{display:none;}
	.st1{display:inline;fill:#008D36;stroke:#010202;stroke-width:0.25;stroke-miterlimit:10;}
	.st2{fill:#008D36;stroke:#010202;stroke-width:0.1;stroke-miterlimit:10;}
</style>
<g id="Calque_1" class="st0">
	<polygon class="st1" points="53.8,2.9 53.8,3.8 3.7,53.9 2.8,53.9 2.8,53.1 53,2.9 	"/>
	<polygon class="st1" points="53.8,8.7 53.8,10.4 10.3,53.9 8.6,53.9 	"/>
	<polygon class="st1" points="53.8,15.3 53.8,17 17,53.9 15.3,53.9 	"/>
	<polygon class="st1" points="53.8,22 53.8,23.6 23.6,53.9 21.9,53.9 	"/>
	<polygon class="st1" points="53.8,28.6 53.8,30.3 30.2,53.9 28.6,53.9 	"/>
	<polygon class="st1" points="53.8,35.2 53.8,36.9 36.9,53.9 35.2,53.9 	"/>
	<polygon class="st1" points="53.8,41.8 53.8,43.5 43.5,53.9 41.8,53.9 	"/>
	<polygon class="st1" points="53.8,48.5 53.8,50.2 50.1,53.9 48.4,53.9 	"/>
	<polygon class="st1" points="14.9,2.9 2.8,15 2.8,13.3 13.2,2.9 	"/>
	<polygon class="st1" points="21.5,2.9 2.8,21.6 2.8,19.9 19.8,2.9 	"/>
	<polygon class="st1" points="28.1,2.9 2.8,28.2 2.8,26.5 26.4,2.9 	"/>
	<polygon class="st1" points="34.8,2.9 2.8,34.8 2.8,33.2 33.1,2.9 	"/>
	<polygon class="st1" points="41.4,2.9 2.8,41.5 2.8,39.8 39.7,2.9 	"/>
	<polygon class="st1" points="48,2.9 2.8,48.1 2.8,46.5 46.4,2.9 	"/>
	<polygon class="st1" points="8.2,2.9 2.8,8.3 2.8,6.6 6.6,2.9 	"/>
</g>
<g id="Calque_2" class="st0">
	<polygon class="st1" points="53.8,53.1 53.8,53.9 53,53.9 2.8,3.8 2.8,2.9 3.7,2.9 	"/>
	<polygon class="st1" points="48,53.9 46.4,53.9 2.8,10.4 2.8,8.7 	"/>
	<polygon class="st1" points="41.4,53.9 39.7,53.9 2.8,17 2.8,15.3 	"/>
	<polygon class="st1" points="34.8,53.9 33.1,53.9 2.8,23.6 2.8,22 	"/>
	<polygon class="st1" points="28.1,53.9 26.4,53.9 2.8,30.3 2.8,28.6 	"/>
	<polygon class="st1" points="21.5,53.9 19.8,53.9 2.8,36.9 2.8,35.2 	"/>
	<polygon class="st1" points="14.9,53.9 13.2,53.9 2.8,43.5 2.8,41.8 	"/>
	<polygon class="st1" points="8.2,53.9 6.6,53.9 2.8,50.2 2.8,48.5 	"/>
	<polygon class="st1" points="53.8,13.3 53.8,15 41.8,2.9 43.5,2.9 	"/>
	<polygon class="st1" points="53.8,19.9 53.8,21.6 35.2,2.9 36.9,2.9 	"/>
	<polygon class="st1" points="53.8,26.5 53.8,28.2 28.6,2.9 30.2,2.9 	"/>
	<polygon class="st1" points="53.8,33.2 53.8,34.8 21.9,2.9 23.6,2.9 	"/>
	<polygon class="st1" points="53.8,39.8 53.8,41.5 15.3,2.9 17,2.9 	"/>
	<polygon class="st1" points="53.8,46.5 53.8,48.1 8.6,2.9 10.3,2.9 	"/>
	<polygon class="st1" points="53.8,6.6 53.8,8.3 48.4,2.9 50.1,2.9 	"/>
</g>
<g id="Calque_3">
	<polygon class="st2" points="56.4,0.3 56.4,1.2 54.8,2.8 53.9,1.9 55.5,0.3 	"/>
	<polygon class="st2" points="53.9,3.7 47.5,10.1 46.6,9.2 49.3,6.5 50.2,5.6 53,2.8 	"/>
	<rect x="38.4" y="13.1" transform="matrix(0.7071 -0.7071 0.7071 0.7071 2.8406 34.3977)" class="st2" width="9" height="1.3"/>
	<polygon class="st2" points="39.3,18.3 32.9,24.7 32,23.8 38.4,17.4 	"/>
	<polygon class="st2" points="32,25.6 29.3,28.4 28.4,29.3 25.6,32 24.7,31.1 27.4,28.4 28.4,27.4 31.1,24.7 	"/>
	<polygon class="st2" points="24.7,32.9 22,35.6 18.3,39.3 17.4,38.4 20.1,35.6 21.1,34.7 23.8,32 	"/>
	<polygon class="st2" points="17.4,40.2 14.7,43 13.8,43.9 11.1,46.6 10.1,45.6 12.8,42.9 13.7,42 16.5,39.3 	"/>
	<polygon class="st2" points="10.1,47.5 7.4,50.2 6.5,51.2 3.8,53.9 2.8,52.9 5.5,50.2 6.5,49.3 9.2,46.6 	"/>
	<polygon class="st2" points="2.8,54.8 1.3,56.4 0.3,56.4 0.3,55.4 1.9,53.9 	"/>
	<polygon class="st2" points="53.9,11.1 51.2,13.8 50.2,14.7 47.5,17.4 46.6,16.5 52.9,10.1 	"/>
	<polygon class="st2" points="46.6,18.3 43.9,21.1 43,22 40.2,24.7 39.3,23.8 42,21 42.9,20.1 45.7,17.4 	"/>
	<polygon class="st2" points="39.3,25.6 32.9,32 32,31.1 34.7,28.3 35.6,27.4 38.4,24.7 	"/>
	<polygon class="st2" points="32,32.9 29.3,35.6 28.3,36.6 25.6,39.3 24.7,38.4 27.4,35.6 28.4,34.7 31.1,32 	"/>
	<polygon class="st2" points="24.7,40.2 22,42.9 18.3,46.6 17.4,45.7 20.1,42.9 23.8,39.3 	"/>
	<polygon class="st2" points="17.4,47.5 11,53.9 10.1,52.9 12.8,50.2 13.8,49.3 16.5,46.6 	"/>
	<polygon class="st2" points="10.1,54.8 8.5,56.4 6.7,56.4 9.2,53.9 	"/>
	<polygon class="st2" points="56.4,6.7 56.4,8.5 54.8,10.1 53.9,9.2 	"/>
	<rect x="45.7" y="20.4" transform="matrix(0.7071 -0.7071 0.7071 0.7071 -0.1757 41.6797)" class="st2" width="9" height="1.3"/>
	<polygon class="st2" points="46.6,25.6 40.2,32 39.3,31.1 42,28.3 45.7,24.7 	"/>
	<polygon class="st2" points="39.3,32.9 36.6,35.6 32.9,39.3 32,38.4 35.6,34.7 38.4,32 	"/>
	<polygon class="st2" points="32,40.2 25.6,46.6 24.7,45.7 27.4,42.9 28.4,42 31.1,39.3 	"/>
	<polygon class="st2" points="24.7,47.5 22,50.2 21.1,51.2 18.3,53.9 17.4,52.9 20.1,50.2 21,49.3 23.8,46.6 	"/>
	<polygon class="st2" points="17.4,54.8 15.8,56.4 14,56.4 16.5,53.9 	"/>
	<polygon class="st2" points="56.4,14 56.4,15.8 54.8,17.4 53.9,16.5 	"/>
	<polygon class="st2" points="53.9,25.6 47.5,32 46.6,31.1 50.2,27.4 53,24.7 	"/>
	<polygon class="st2" points="46.6,32.9 40.2,39.3 39.3,38.4 42,35.6 42.9,34.7 45.7,32 	"/>
	<polygon class="st2" points="39.3,40.2 36.6,42.9 35.6,43.9 32.9,46.6 32,45.7 34.7,42.9 35.7,42 38.4,39.3 	"/>
	<polygon class="st2" points="32,47.5 29.3,50.2 25.6,53.9 24.7,53 27.4,50.2 28.4,49.3 31.1,46.6 	"/>
	<polygon class="st2" points="24.7,54.8 23.1,56.4 21.3,56.4 23.8,53.9 	"/>
	<polygon class="st2" points="56.4,21.3 56.4,23.1 54.8,24.7 53.9,23.8 	"/>
	<polygon class="st2" points="53.9,32.9 47.5,39.3 46.6,38.4 49.3,35.6 50.2,34.7 53,32 	"/>
	<polygon class="st2" points="46.6,40.2 43.9,42.9 42.9,43.9 40.2,46.6 39.3,45.7 42,43 43,42 45.7,39.3 	"/>
	<polygon class="st2" points="39.3,47.5 36.6,50.2 35.7,51.2 32.9,53.9 32,53 34.7,50.2 35.7,49.3 38.4,46.6 	"/>
	<polygon class="st2" points="32,54.8 30.4,56.4 28.6,56.4 31.1,53.9 	"/>
	<polygon class="st2" points="56.4,28.6 56.4,30.4 54.8,32 53.9,31.1 	"/>
	<polygon class="st2" points="53.9,40.2 51.2,43 50.2,43.9 47.5,46.6 46.6,45.6 49.3,42.9 50.2,42 52.9,39.3 	"/>
	<polygon class="st2" points="46.6,47.5 43,51.2 40.2,53.9 39.3,52.9 42,50.2 45.6,46.6 	"/>
	<polygon class="st2" points="39.3,54.8 37.7,56.4 35.9,56.4 38.4,53.9 	"/>
	<polygon class="st2" points="56.4,35.8 56.4,37.7 54.8,39.3 53.9,38.4 	"/>
	<polygon class="st2" points="53.9,47.5 51.2,50.2 50.2,51.2 47.5,53.9 46.6,52.9 49.3,50.2 50.2,49.3 52.9,46.6 	"/>
	<polygon class="st2" points="46.6,54.8 45,56.4 43.2,56.4 45.7,53.9 	"/>
	<polygon class="st2" points="56.4,43.1 56.4,45 54.8,46.6 53.9,45.7 	"/>
	<polygon class="st2" points="53.9,54.8 52.3,56.4 50.5,56.4 53,53.9 	"/>
	<polygon class="st2" points="56.4,50.4 56.4,52.3 54.8,53.9 53.9,52.9 	"/>
	<polygon class="st2" points="10.1,3.7 7.4,6.5 6.5,7.4 3.7,10.1 2.8,9.2 5.5,6.5 6.5,5.6 9.2,2.8 	"/>
	<polygon class="st2" points="2.8,11.1 0.3,13.6 0.3,11.7 1.9,10.1 	"/>
	<polygon class="st2" points="13.5,0.3 11,2.8 10.1,1.9 11.7,0.3 	"/>
	<polygon class="st2" points="17.4,3.7 14.7,6.5 13.8,7.4 11,10.1 10.1,9.2 16.5,2.8 	"/>
	<polygon class="st2" points="10.1,11.1 7.4,13.8 6.5,14.7 3.7,17.4 2.8,16.5 9.2,10.1 	"/>
	<polygon class="st2" points="3.7,17.4 2.8,18.3 0.3,20.9 0.3,19 1.9,17.4 2.8,16.5 	"/>
	<polygon class="st2" points="20.9,0.3 18.3,2.8 17.4,1.9 19,0.3 	"/>
	<polygon class="st2" points="24.7,3.7 21,7.4 18.3,10.1 17.4,9.2 23.8,2.8 	"/>
	<polygon class="st2" points="17.4,11 11,17.4 10.1,16.5 12.8,13.8 13.7,12.8 16.5,10.1 	"/>
	<polygon class="st2" points="10.1,18.3 3.7,24.7 2.8,23.8 5.5,21 6.5,20.1 9.2,17.4 	"/>
	<polygon class="st2" points="2.8,25.6 0.3,28.1 0.3,26.3 1.9,24.7 	"/>
	<polygon class="st2" points="28.1,0.3 25.6,2.8 24.7,1.9 26.3,0.3 	"/>
	<polygon class="st2" points="32,3.7 29.3,6.5 28.4,7.4 25.6,10.1 24.7,9.2 27.4,6.5 28.3,5.5 31.1,2.8 	"/>
	<polygon class="st2" points="24.7,11 22,13.8 21.1,14.7 18.3,17.4 17.4,16.5 20.1,13.8 21.1,12.8 23.8,10.1 	"/>
	<polygon class="st2" points="17.4,18.3 14.7,21 13.7,22 11,24.7 10.1,23.8 12.8,21.1 13.8,20.1 16.5,17.4 	"/>
	<polygon class="st2" points="10.1,25.6 3.7,32 2.8,31.1 5.5,28.3 6.5,27.4 9.2,24.7 	"/>
	<polygon class="st2" points="2.8,32.9 0.3,35.4 0.3,33.6 1.9,32 	"/>
	<polygon class="st2" points="35.4,0.3 32.9,2.8 32,1.9 33.6,0.3 	"/>
	<polygon class="st2" points="39.3,3.7 36.6,6.5 35.7,7.4 32.9,10.1 32,9.2 34.7,6.5 35.7,5.5 38.4,2.8 	"/>
	<polygon class="st2" points="32,11 25.6,17.4 24.7,16.5 27.4,13.8 31.1,10.1 	"/>
	<polygon class="st2" points="24.7,18.3 22,21.1 21,22 18.3,24.7 17.4,23.8 20.1,21.1 21.1,20.1 23.8,17.4 	"/>
	<polygon class="st2" points="17.4,25.6 14.7,28.3 13.8,29.3 11,32 10.1,31.1 12.8,28.3 13.8,27.4 16.5,24.7 	"/>
	<polygon class="st2" points="10.1,32.9 6.5,36.6 3.7,39.3 2.8,38.4 5.5,35.6 9.2,32 	"/>
	<polygon class="st2" points="3.7,39.3 2.8,40.2 0.3,42.7 0.3,40.9 2.8,38.4 	"/>
	<polygon class="st2" points="42.7,0.3 40.2,2.8 39.3,3.7 38.4,2.8 40.9,0.3 	"/>
	<polygon class="st2" points="46.6,3.7 40.2,10.1 39.3,9.2 45.7,2.8 	"/>
	<polygon class="st2" points="39.3,11 36.6,13.8 35.7,14.7 32.9,17.4 32,16.5 38.4,10.1 	"/>
	<polygon class="st2" points="32,18.3 28.4,22 25.6,24.7 24.7,23.8 27.4,21.1 28.3,20.1 31.1,17.4 	"/>
	<polygon class="st2" points="24.7,25.6 22,28.3 21.1,29.3 18.3,32 17.4,31.1 20.1,28.4 23.8,24.7 	"/>
	<polygon class="st2" points="17.4,32.9 14.7,35.6 13.8,36.6 11,39.3 10.1,38.4 16.5,32 	"/>
	<rect x="2" y="42.3" transform="matrix(0.7071 -0.7071 0.7071 0.7071 -28.4707 17.1495)" class="st2" width="9" height="1.3"/>
	<polygon class="st2" points="2.8,47.5 0.3,50 0.3,48.2 1.9,46.6 	"/>
	<polygon class="st2" points="50,0.3 47.5,2.8 46.6,1.9 48.2,0.3 	"/>
	<polygon class="st2" points="1.9,2.8 2.8,3.7 0.3,6.3 0.3,4.4 	"/>
	<polygon class="st2" points="6.2,0.3 3.7,2.8 2.8,1.9 4.4,0.3 	"/>
	<polygon class="st2" points="6.5,5.6 5.5,6.5 2.8,3.7 1.9,2.8 0.3,1.2 0.3,0.3 1.2,0.3 	"/>
	<polygon class="st2" points="13.7,12.8 12.8,13.8 10.1,11.1 9.2,10.1 6.5,7.4 7.4,6.5 10.1,9.2 11,10.1 	"/>
	<polygon class="st2" points="21.1,20.1 20.1,21.1 13.7,14.7 14.7,13.7 17.4,16.5 	"/>
	<polygon class="st2" points="28.4,27.4 27.4,28.4 21,22 22,21.1 25.6,24.7 	"/>
	<polygon class="st2" points="35.6,34.7 34.7,35.6 28.4,29.3 29.3,28.4 32,31.1 32.9,32 	"/>
	<polygon class="st2" points="43,42 42,43 39.3,40.2 38.4,39.3 35.6,36.6 36.6,35.6 39.3,38.4 40.2,39.3 	"/>
	<polygon class="st2" points="50.2,49.3 49.3,50.2 42.9,43.9 43.9,42.9 46.6,45.6 47.5,46.6 	"/>
	<polygon class="st2" points="56.4,55.4 56.4,56.4 55.4,56.4 53.9,54.8 53,53.9 50.2,51.2 51.2,50.2 	"/>
	<polygon class="st2" points="6.5,12.8 5.5,13.8 2.8,11.1 1.9,10.1 0.3,8.5 0.3,6.7 	"/>
	<polygon class="st2" points="13.8,20.1 12.8,21.1 10.1,18.3 9.2,17.4 6.5,14.7 7.4,13.8 10.1,16.5 11,17.4 	"/>
	<polygon class="st2" points="21.1,27.4 20.1,28.4 17.4,25.6 16.5,24.7 13.7,22 14.7,21 18.3,24.7 	"/>
	<polygon class="st2" points="28.4,34.7 27.4,35.6 24.7,32.9 23.8,32 21.1,29.3 22,28.3 24.7,31.1 25.6,32 	"/>
	<polygon class="st2" points="35.7,42 34.7,42.9 32,40.2 31.1,39.3 28.3,36.6 29.3,35.6 32,38.4 32.9,39.3 	"/>
	<polygon class="st2" points="42.9,49.3 42,50.2 38.4,46.6 35.6,43.9 36.6,42.9 39.3,45.7 40.2,46.6 	"/>
	<polygon class="st2" points="50,56.4 48.2,56.4 46.6,54.8 45.7,53.9 43,51.2 43.9,50.2 46.6,52.9 47.5,53.9 	"/>
	<polygon class="st2" points="6.5,20.1 5.5,21 0.3,15.8 0.3,14 2.8,16.5 	"/>
	<polygon class="st2" points="13.8,27.4 12.8,28.3 6.5,22 7.4,21 10.1,23.8 	"/>
	<rect x="16.8" y="27.5" transform="matrix(0.7071 -0.7071 0.7071 0.7071 -17.5231 21.6763)" class="st2" width="1.3" height="9"/>
	<polygon class="st2" points="28.4,42 27.4,42.9 24.7,40.2 23.8,39.3 21.1,36.6 22,35.6 24.7,38.4 25.6,39.3 	"/>
	<polygon class="st2" points="35.7,49.3 34.7,50.2 32,47.5 31.1,46.6 28.4,43.9 29.3,42.9 32,45.7 32.9,46.6 	"/>
	<polygon class="st2" points="42.7,56.4 40.9,56.4 39.3,54.8 35.7,51.2 36.6,50.2 40.2,53.9 	"/>
	<polygon class="st2" points="6.5,27.4 5.5,28.3 2.8,25.6 1.9,24.7 0.3,23.1 0.3,21.3 2.8,23.8 3.7,24.7 	"/>
	<polygon class="st2" points="13.8,34.7 12.8,35.6 6.5,29.3 7.4,28.3 10.1,31.1 11,32 	"/>
	<polygon class="st2" points="21.1,42 20.1,42.9 16.5,39.3 13.8,36.6 14.7,35.6 17.4,38.4 18.3,39.3 	"/>
	<polygon class="st2" points="28.4,49.3 27.4,50.2 24.7,47.5 23.8,46.6 21.1,43.9 22,42.9 24.7,45.7 25.6,46.6 	"/>
	<polygon class="st2" points="35.4,56.4 33.6,56.4 31.1,53.9 28.3,51.2 29.3,50.2 32,53 	"/>
	<polygon class="st2" points="6.5,34.7 5.5,35.6 2.8,32.9 1.9,32 0.3,30.4 0.3,28.6 2.8,31.1 3.7,32 	"/>
	<polygon class="st2" points="13.7,42 12.8,42.9 10.1,40.2 9.2,39.3 6.5,36.6 7.4,35.6 10.1,38.4 11,39.3 	"/>
	<polygon class="st2" points="21,49.3 20.1,50.2 17.4,47.5 16.5,46.6 13.8,43.9 14.7,43 17.4,45.7 18.3,46.6 	"/>
	<polygon class="st2" points="28.1,56.4 26.3,56.4 24.7,54.8 23.8,53.9 21.1,51.2 22,50.2 24.7,53 25.6,53.9 	"/>
	<polygon class="st2" points="6.5,42 5.5,43 2.8,40.2 0.3,37.7 0.3,35.8 2.8,38.4 3.7,39.3 	"/>
	<polygon class="st2" points="13.8,49.3 12.8,50.2 10.1,47.5 9.2,46.6 6.5,43.9 7.4,42.9 10.1,45.6 	"/>
	<polygon class="st2" points="20.9,56.4 19,56.4 17.4,54.8 16.5,53.9 13.7,51.2 14.7,50.2 	"/>
	<polygon class="st2" points="6.5,49.3 5.5,50.2 2.8,47.5 1.9,46.6 0.3,45 0.3,43.1 2.8,45.7 3.7,46.6 	"/>
	<polygon class="st2" points="13.5,56.4 11.7,56.4 6.5,51.2 7.4,50.2 10.1,52.9 11,53.9 	"/>
	<polygon class="st2" points="6.2,56.4 4.4,56.4 2.8,54.8 1.9,53.9 0.3,52.3 0.3,50.4 2.8,52.9 3.8,53.9 	"/>
	<polygon class="st2" points="50.2,5.6 49.3,6.5 46.6,3.7 45.7,2.8 43.2,0.3 45,0.3 46.6,1.9 47.5,2.8 	"/>
	<polygon class="st2" points="56.4,11.7 56.4,13.6 53.9,11.1 52.9,10.1 50.2,7.4 51.2,6.5 53.9,9.2 54.8,10.1 	"/>
	<polygon class="st2" points="43,5.5 42,6.5 39.3,3.7 38.4,2.8 35.9,0.3 37.7,0.3 40.2,2.8 	"/>
	<polygon class="st2" points="50.2,12.8 49.3,13.8 46.6,11.1 45.7,10.1 42.9,7.4 43.9,6.5 46.6,9.2 47.5,10.1 	"/>
	<polygon class="st2" points="56.4,19 56.4,20.9 53.9,18.3 52.9,17.4 50.2,14.7 51.2,13.8 	"/>
	<polygon class="st2" points="35.7,5.5 34.7,6.5 28.6,0.3 30.4,0.3 	"/>
	<polygon class="st2" points="43,12.8 42,13.8 39.3,11 38.4,10.1 35.7,7.4 36.6,6.5 39.3,9.2 40.2,10.1 	"/>
	<polygon class="st2" points="50.2,20.1 49.3,21 46.6,18.3 43,14.7 43.9,13.8 46.6,16.5 47.5,17.4 	"/>
	<polygon class="st2" points="56.4,26.3 56.4,28.1 53.9,25.6 50.2,22 51.2,21 53.9,23.8 54.8,24.7 	"/>
	<polygon class="st2" points="35.6,12.8 34.7,13.8 32,11 31.1,10.1 28.4,7.4 29.3,6.5 32,9.2 32.9,10.1 	"/>
	<polygon class="st2" points="28.3,5.5 27.4,6.5 24.7,3.7 23.8,2.8 21.3,0.3 23.1,0.3 24.7,1.9 25.6,2.8 	"/>
	<polygon class="st2" points="42.9,20.1 42,21 39.3,18.3 38.4,17.4 35.7,14.7 36.6,13.8 39.3,16.5 40.2,17.4 	"/>
	<polygon class="st2" points="50.2,27.4 49.3,28.3 46.6,25.6 45.7,24.7 43,22 43.9,21.1 46.6,23.8 47.5,24.7 	"/>
	<polygon class="st2" points="56.4,33.6 56.4,35.4 53.9,32.9 50.2,29.3 51.2,28.3 53.9,31.1 54.8,32 	"/>
	<polygon class="st2" points="21.1,5.5 20.1,6.5 14,0.3 15.8,0.3 17.4,1.9 	"/>
	<polygon class="st2" points="28.4,12.8 27.4,13.8 23.8,10.1 21,7.4 22,6.5 24.7,9.2 25.6,10.1 	"/>
	<polygon class="st2" points="35.6,20.1 34.7,21.1 32,18.3 31.1,17.4 28.4,14.7 29.3,13.8 32,16.5 32.9,17.4 	"/>
	<polygon class="st2" points="42.9,27.4 42,28.3 39.3,25.6 38.4,24.7 35.6,22 36.6,21.1 39.3,23.8 40.2,24.7 	"/>
	<polygon class="st2" points="50.2,34.7 49.3,35.6 46.6,32.9 45.7,32 42.9,29.3 43.9,28.3 46.6,31.1 47.5,32 	"/>
	<polygon class="st2" points="56.4,40.9 56.4,42.7 52.9,39.3 50.2,36.6 51.2,35.6 53.9,38.4 54.8,39.3 	"/>
	<polygon class="st2" points="13.7,5.5 12.8,6.5 10.1,3.7 6.7,0.3 8.5,0.3 	"/>
	<polygon class="st2" points="21.1,12.8 20.1,13.8 17.4,11 16.5,10.1 13.8,7.4 14.7,6.5 17.4,9.2 18.3,10.1 	"/>
	<polygon class="st2" points="28.3,20.1 27.4,21.1 24.7,18.3 21.1,14.7 22,13.8 25.6,17.4 	"/>
	<polygon class="st2" points="35.6,27.4 34.7,28.3 32,25.6 31.1,24.7 28.4,22 29.3,21.1 32,23.8 32.9,24.7 	"/>
	<polygon class="st2" points="42.9,34.7 42,35.6 38.4,32 35.6,29.3 36.6,28.4 39.3,31.1 	"/>
	<polygon class="st2" points="50.2,42 49.3,42.9 45.7,39.3 42.9,36.6 43.9,35.6 	"/>
	<polygon class="st2" points="56.4,48.2 56.4,50 50.2,43.9 51.2,43 	"/>
	<polygon class="st2" points="56.4,4.4 56.4,6.3 53.9,3.7 53,2.8 50.5,0.3 52.3,0.3 53.9,1.9 54.8,2.8 	"/>
</g>
</svg>
